<svg width="174" height="48" viewBox="0 0 174 48" fill="none" xmlns="http://www.w3.org/2000/svg">
  <path d="M9 26.2c0-8.18 6.54-14.8 14.62-14.8 8.16 0 14.78 6.62 14.78 14.8 0 8.16-6.62 14.8-14.78 14.8C15.54 41 9 34.36 9 26.2Zm8.1 0c0 3.74 2.92 6.76 6.52 6.76 3.7 0 6.68-3.02 6.68-6.76 0-3.76-2.98-6.78-6.68-6.78-3.6 0-6.52 3.02-6.52 6.78Z" fill="#E6E6E6"/>
  <path d="M21.5 7c7.8 0 14.8 4.44 18.19 11.23l4.38-4.38 5.66 5.66-8.93 8.93-8.94-8.93 5.65-5.66 1.06 1.06C35.56 10.34 29.35 7 21.5 7Z" fill="#E6E6E6"/>
  <path d="M60 34V14h8.55c6.75 0 11.07 3.81 11.07 9.99S75.3 34 68.55 34H60Zm5.46-4.41h2.76c3.6 0 5.82-2.04 5.82-5.6 0-3.54-2.22-5.58-5.82-5.58h-2.76v11.18Zm27.06 4.73c-6.3 0-10.53-4.08-10.53-10.2 0-6.21 4.08-10.44 10.08-10.44 5.82 0 9.57 3.9 9.57 9.96v1.41H87.15c.33 3.06 2.19 4.68 5.49 4.68 2.16 0 4.11-.63 5.85-1.86l1.5 3.72c-1.89 1.77-4.53 2.73-7.47 2.73Zm-.27-16.98c-2.73 0-4.5 1.68-5.01 4.44h9.87c-.18-2.82-1.95-4.44-4.86-4.44ZM113.54 34.32c-3.48 0-6.48-.84-8.76-2.55l1.41-3.72c2.31 1.53 4.92 2.31 7.47 2.31 2.19 0 3.27-.57 3.27-1.74 0-.93-.69-1.47-2.22-1.8l-3.36-.72c-3.9-.84-5.85-2.82-5.85-5.91 0-3.87 3.36-6.51 8.55-6.51 3.06 0 5.7.84 7.65 2.43l-1.47 3.6c-1.89-1.35-4.02-2.04-6.21-2.04-2.07 0-3.12.66-3.12 1.86 0 .93.66 1.44 2.1 1.77l3.39.75c4.02.9 5.94 2.79 5.94 5.85 0 3.84-3.42 6.42-8.79 6.42ZM126.22 34V14h5.28v8.22h.09l7.41-8.22h6.33l-8.61 9.39L146.02 34h-6.54l-7.89-8.73h-.09V34h-5.28Zm30.82.32c-6.3 0-10.53-4.08-10.53-10.2 0-6.21 4.08-10.44 10.08-10.44 5.82 0 9.57 3.9 9.57 9.96v1.41h-14.49c.33 3.06 2.19 4.68 5.49 4.68 2.16 0 4.11-.63 5.85-1.86l1.5 3.72c-1.89 1.77-4.53 2.73-7.47 2.73Z" fill="#E6E6E6"/>
</svg>
