<svg width="138" height="48" viewBox="0 0 138 48" fill="none" xmlns="http://www.w3.org/2000/svg">
  <path d="M34.94 32.88c-3.58 0-6.23-2.64-9.44-8.16-2.72-4.67-4.64-6.95-7.08-6.95-2.79 0-4.88 2.57-4.88 6.23 0 3.72 2.16 6.2 5.05 6.2 1.78 0 3.25-.85 4.83-2.92l3.24 4.38c-2.44 2.86-5.12 4.12-8.39 4.12C12.16 35.78 8 31.04 8 24c0-6.96 4.2-11.78 10.13-11.78 4.63 0 7.69 2.79 11.56 9.49 2.51 4.36 3.92 5.95 5.54 5.95 1.88 0 3.04-1.57 3.04-3.66 0-2.21-1.25-3.67-3.09-3.67-1.08 0-2.02.42-3.15 1.5l-2.66-4.53c2.01-1.76 4.06-2.55 6.25-2.55 5.02 0 8.38 3.8 8.38 9.25 0 5.31-3.55 8.88-9.06 8.88Z" fill="#E6E6E6"/>
  <path d="M58.6 34V14h5.88l5.85 10.56L76.18 14h5.76v20h-5.19V23.03L72.1 31.22h-3.63l-4.68-8.04V34H58.6Zm39.06.32c-6.3 0-10.53-4.08-10.53-10.2 0-6.21 4.08-10.44 10.08-10.44 5.82 0 9.57 3.9 9.57 9.96v1.41H92.29c.33 3.06 2.19 4.68 5.49 4.68 2.16 0 4.11-.63 5.85-1.86l1.5 3.72c-1.89 1.77-4.53 2.73-7.47 2.73Zm-.27-16.98c-2.73 0-4.5 1.68-5.01 4.44h9.87c-.18-2.82-1.95-4.44-4.86-4.44ZM119.5 34.32c-5.01 0-7.47-2.34-7.47-7.11v-8.91h-3.72V14h3.72V8.6h5.28V14h5.88v4.3h-5.88v8.58c0 2.01.99 3 3.03 3 .75 0 1.47-.12 2.22-.36l.78 4.05c-1.08.51-2.43.75-3.84.75Zm13.1-.03c-4.44 0-7.38-2.52-7.38-6.39 0-4.02 3-6.24 8.46-6.24h4.02v-.66c0-2.25-1.17-3.27-3.72-3.27-2.16 0-4.38.69-6.54 2.1l-1.47-3.66c2.43-1.62 5.61-2.49 8.61-2.49 5.46 0 8.16 2.58 8.16 7.89V34h-4.86v-2.52c-.93 1.77-2.85 2.81-5.28 2.81Zm1.17-3.78c2.34 0 3.93-1.62 3.93-4.02v-.66h-3.24c-2.97 0-4.29.6-4.29 1.98 0 1.62 1.32 2.7 3.6 2.7Z" fill="#E6E6E6"/>
</svg>
