<svg width="154" height="48" viewBox="0 0 154 48" fill="none" xmlns="http://www.w3.org/2000/svg">
  <path d="M7 8h7v7H7V8Zm14 0h7v7h-7V8Zm14 0h7v7h-7V8ZM7 15h7v7H7v-7Zm14 0h7v7h-7v-7Zm14 0h7v7h-7v-7ZM7 22h7v7H7v-7Zm14 0h7v7h-7v-7Zm14 0h7v7h-7v-7ZM7 29h7v7H7v-7Zm14 0h7v7h-7v-7Zm14 0h7v7h-7v-7Z" fill="#E6E6E6"/>
  <path d="M57 34V14h5.88l5.85 10.56L74.58 14h5.76v20h-5.19V23.03l-4.65 8.19h-3.63l-4.68-8.04V34H57Zm29.58 0V14h5.28v20h-5.28Zm18.18.32c-3.48 0-6.48-.84-8.76-2.55l1.41-3.72c2.31 1.53 4.92 2.31 7.47 2.31 2.19 0 3.27-.57 3.27-1.74 0-.93-.69-1.47-2.22-1.8l-3.36-.72c-3.9-.84-5.85-2.82-5.85-5.91 0-3.87 3.36-6.51 8.55-6.51 3.06 0 5.7.84 7.65 2.43l-1.47 3.6c-1.89-1.35-4.02-2.04-6.21-2.04-2.07 0-3.12.66-3.12 1.86 0 .93.66 1.44 2.1 1.77l3.39.75c4.02.9 5.94 2.79 5.94 5.85 0 3.84-3.42 6.42-8.79 6.42Zm22.5 0c-5.01 0-7.47-2.34-7.47-7.11v-8.91h-3.72V14h3.72V8.6h5.28V14h5.88v4.3h-5.88v8.58c0 2.01.99 3 3.03 3 .75 0 1.47-.12 2.22-.36l.78 4.05c-1.08.51-2.43.75-3.84.75Zm8.04-.32V14h5.13v3.45c.93-2.37 3.06-3.63 6.15-3.63h1.17v4.86h-2.43c-3.12 0-4.74 1.59-4.74 4.65V34h-5.28Z" fill="#E6E6E6"/>
</svg>
