<svg width="160" height="48" viewBox="0 0 160 48" fill="none" xmlns="http://www.w3.org/2000/svg">
  <path d="M24 42C13.507 42 5 33.493 5 23S13.507 4 24 4s19 8.507 19 19c0 4.02-1.249 7.748-3.38 10.817l5.224 5.224-5.657 5.657-5.008-5.008A18.918 18.918 0 0 1 24 42Zm0-8c6.075 0 11-4.925 11-11S30.075 12 24 12 13 16.925 13 23s4.925 11 11 11Z" fill="#E6E6E6"/>
  <path d="M59.2 34 51.8 14h5.7l4.1 12.2L65.8 14h4.6l4.2 12.2L78.7 14h5.5L76.9 34h-4.8l-4-11.6L64 34h-4.8Zm35.59.32c-6.12 0-10.35-4.17-10.35-10.32 0-6.18 4.23-10.32 10.35-10.32 6.09 0 10.32 4.14 10.32 10.32 0 6.15-4.23 10.32-10.32 10.32Zm0-4.71c2.97 0 5.01-2.22 5.01-5.61 0-3.42-2.04-5.61-5.01-5.61-3 0-5.04 2.19-5.04 5.61 0 3.39 2.04 5.61 5.04 5.61ZM108.49 34V14h5.04v2.7c1.23-1.95 3.27-3.02 5.88-3.02 4.59 0 7.17 2.88 7.17 7.95V34h-5.25V22.26c0-2.55-1.29-3.87-3.63-3.87-2.49 0-3.96 1.62-3.96 4.35V34h-5.25Zm32.78.32c-6.33 0-10.56-4.08-10.56-10.2 0-6.21 4.08-10.44 10.08-10.44 5.82 0 9.57 3.9 9.57 9.96v1.41h-14.49c.33 3.06 2.19 4.68 5.49 4.68 2.16 0 4.11-.63 5.85-1.86l1.5 3.72c-1.89 1.77-4.53 2.73-7.44 2.73Zm-.3-16.98c-2.73 0-4.5 1.68-5.01 4.44h9.87c-.18-2.82-1.95-4.44-4.86-4.44Z" fill="#E6E6E6"/>
</svg>
